<?xml version="1.0" encoding="utf-8"?>
<!-- Generator: Adobe Illustrator 23.0.2, SVG Export Plug-In . SVG Version: 6.00 Build 0)  -->
<svg version="1.1" id="Ebene_1" xmlns="http://www.w3.org/2000/svg" xmlns:xlink="http://www.w3.org/1999/xlink" x="0px" y="0px"
	 viewBox="0 0 6188.7 2533.9" style="enable-background:new 0 0 6188.7 2533.9;" xml:space="preserve">
<style type="text/css">
	.st0{fill:#738FA0;stroke:#000000;stroke-width:5;stroke-linecap:round;stroke-linejoin:round;}
	.st1{fill:#95B3C1;stroke:#000000;stroke-width:5;stroke-linecap:round;stroke-linejoin:round;}
</style>
<g id="ug1">
	<path id="on" class="st0" d="M2170.4,1811.2L2.5,1466v-117.1l2167.9,345.2V1811.2z M6186.2,1350.2l-1282.8,757.9V1991l1282.7-757.9
		L6186.2,1350.2z M4903.5,2108.1l-2595.7-411v-117l2595.7,411V2108.1z M6186.2,1233.1L4903.5,1991l-2595.7-410.9l-137.4,114.1
		L2.5,1348.9l1068.2-755l408.9-48.9L1961,151.2l977.6,155.7l-63.9,53.1l63.9,15.8l1104.6,274.3l-80.5,43.9l80.5,19.5L6186.2,1233.1z
		 M4043.2,650.2v63.5l-80.5-19.6L4043.2,650.2z M2938.6,306.9v68.9l-63.9-15.8L2938.6,306.9z M2170.4,1694.1l137.4-114.1v117
		l-137.4,114.1V1694.1z"/>
</g>
<g id="HA-1-1">
	<path id="on-2" class="st1" d="M2518,687.1l-935.7,777.3v-111.1L2518,576.1V687.1z M1582.3,1464.5l-810.2-129v-111.1l810.2,129
		V1464.5z M772,1224.3L1707.8,447l810.1,129l-935.7,777.3L772,1224.3z"/>
</g>
<g id="HA-2-1">
	<path id="on-3" class="st0" d="M1790.4,1071.6l-208.1,172.9l-358.3-57l208.1-172.9L1790.4,1071.6z M1582.3,1244.5l208.1-172.9
		v111.1l-208.1,172.9V1244.5L1582.3,1244.5z M1224,1187.5l358.3,57.1v111.1l-358.3-57.1V1187.5z"/>
</g>
<g id="_33.0102">
	<path id="on-4" class="st0" d="M4604.3,738.5l-294.4,160.7V788.1l294.4-160.7V738.5z M4604.3,627.4l-294.4,160.7l-300.1-72.8
		l294.4-160.7L4604.3,627.4z M4309.9,788.1v111.1l-300.1-72.8V715.3L4309.9,788.1z"/>
</g>
<g id="_33.0101">
	<path id="on-5" class="st0" d="M4722.2,999.2l-412.3-100V788.1l412.3,100V999.2z M5016.6,838.5l-294.4,160.7V888.1l294.4-160.7
		V838.5z M4722.2,888.1l-412.3-100l124.8-68.1l56.7,13.8l41.8-22.8l49.7,12l127.8-69.8l306,74.2L4722.2,888.1z"/>
</g>
<g id="_31.0102">
	<path id="on-6" class="st0" d="M5993.5,1235.9l-194.1-43.5v-111.1l194.1,43.5V1235.9z M5768,1210.9l-66.4-14.8V1085l66.4,14.9
		V1210.9z M5666,1217.1l-191.5-42.9v-111.1L5666,1106V1217.1z M5701.7,1084.9v111.2l-35.7,21.1V1106L5701.7,1084.9z M5799.4,1192.4
		l-31.3,18.5v-111.1l31.3-18.5V1192.4z M6186.2,1010.9V1122l-192.8,113.9v-111.1L6186.2,1010.9z M6186.2,1010.9l-192.8,113.9
		l-194.1-43.5l-31.3,18.5l-66.4-14.9l-35.7,21.1l-191.5-42.9l259.8-153.4L6186.2,1010.9z"/>
</g>
<g id="haus_b2_treppe_1og_rechts">
	<path id="on-7" class="st0" d="M5666,1106l260.5,58.3v111.1l-260.5-58.3V1106z M5926.5,1164.3L5666,1106l35.7-21.1l66.4,14.9
		l31.3-18.5l194.1,43.5L5926.5,1164.3z M5926.5,1164.3l67-39.6v111.1l-67,39.6V1164.3z"/>
</g>
<g id="_31.0101">
	<path id="on-8" class="st0" d="M5926.5,1275.5l-188.1,111.1v-111.1l188.1-111.1V1275.5z M5286.3,1174.3l188.1-111.2l452,101.2
		l-188.1,111.2L5286.3,1174.3z M5286.3,1174.3l452,101.2v111.1l-452-101.2V1174.3z"/>
</g>
<g id="_29.0103">
	<path id="on-9" class="st0" d="M5554.5,1495.2l-452-101.2v-111.1l452,101.2V1495.2z M5554.5,1495.2v-111.1l183.8-108.6v111.1
		L5554.5,1495.2z M5554.5,1384l-452-101.2l183.8-108.6l452,101.2L5554.5,1384z"/>
</g>
<g id="haus_b2_treppe_1og_links">
	<path id="on-10" class="st0" d="M5554.5,1495.2l-67,39.6v-111.1l67-39.6V1495.2z M5487.5,1534.8l-194.1-43.5v-111.1l194.1,43.5
		V1534.8z M5293.4,1465.8l-35.1-7.9v-111.1l66.4,14.9l-31.3,18.5V1465.8z M5258.3,1346.8l35.7-21.1l260.5,58.4l-67,39.6l-194.1-43.5
		l31.3-18.5L5258.3,1346.8z"/>
</g>
<g id="_29.0102">
	<path id="on-11" class="st0" d="M5324.7,1472.8l-152.8,90.3V1452l152.8-90.2V1472.8z M5172,1563.1l-68.4-15.3v-111.1l68.4,15.3
		V1563.1z M5103.6,1547.8l-160.6,94.9v-111.1l160.6-94.9V1547.8z M4943,1642.7l-189.6-42.5v-111.1l189.6,42.4V1642.7z
		 M5102.5,1282.8l191.5,42.9l-35.7,21.1l35.7,8l30.7,6.9l-152.8,90.2l-68.4-15.3l-160.6,94.9l-189.6-42.5L5102.5,1282.8z
		 M5258.3,1346.8l35.7-21.1v29.1L5258.3,1346.8z"/>
</g>
<g id="_29.0101">
	<path id="on-12" class="st0" d="M5487.5,1534.8l-282.1,166.7v-111.1l282.1-166.7V1534.8z M5205.4,1701.4l-262.4-58.8v-111.1
		l262.4,58.8V1701.4z M5487.5,1423.6l-282.1,166.7l-262.4-58.8l160.6-94.9l68.4,15.3l121.5-71.8L5487.5,1423.6z"/>
</g>
<g id="haus_a_treppe_1og">
	<path id="on-13" class="st0" d="M1590.6,544.3V433.2l358.3,57.1l-112.2,93.3L1590.6,544.3z M1590.6,433.2l117.1-97.3l595.1,94.8
		l-92.5,76.8L2067,484.9l-229.6,190.7l61.2,9.8l-90.4,75.1l-61.2-9.7l-523,434.4l-93.7-14.9l706.3-586.8l112.2-93.3L1590.6,433.2z
		 M2302.9,430.7v111.1l-92.5,76.8V507.5L2302.9,430.7z M1130.3,1281.4v-111.1l93.7,14.9v111.1L1130.3,1281.4z M2067,596
		l-168.4,139.9v-50.5l-61.2-9.8L2067,484.9V596z M2067,596V484.9l143.4,22.6v111.1L2067,596z M1747.1,861.8V750.6l61.2,9.7v111.1
		L1747.1,861.8z M1898.6,796.4l-90.4,75.1V760.4l90.4-75.1V796.4z"/>
</g>
<g id="HA-2-6">
	<path id="on-14" class="st0" d="M2067,484.9l143.4,22.6l92.5-76.8l215.1,34.2l-182,151.2l-358.3-57L2067,484.9z M1977.7,670.1v-111
		l358.3,57v111.1L1977.7,670.1z M2336,616.1l182-151.2v111.2l-182,151.2V616.1z"/>
</g>
<g id="HA-2-12">
	<path id="on-15" class="st0" d="M1130.3,1281.4L772,1224.3v-111.1l358.3,57V1281.4z M1130.3,1170.3l-358.3-57l134.7-111.9
		l358.3,57.1L1130.3,1170.3z"/>
</g>
<g id="haus_b3_treppe_1og_links">
	<path id="on-16" class="st0" d="M2884.4,1439.3l-122.7,101.9v-111.1l122.7-101.9V1439.3z M2761.7,1541.2l-117.1-18.6v-111.1
		l117.1,18.7V1541.2z M2821.9,1318.2l62.4,9.9l-122.7,102l-117.1-18.6l91.4-75.9l54.7,8.7L2821.9,1318.2z"/>
</g>
<g id="_27.0101">
	<path id="on-17" class="st0" d="M2974.6,1364.3l-90.2,75v-111.2l90.2-74.9V1364.3z M2884.4,1439.3l-62.4-10v-111.1l62.4,9.9V1439.3
		z M2821.9,1429.3l-31.3,26v-111.1l31.3-26V1429.3z M2790.6,1455.3l-54.6-8.7v-111.1l54.6,8.7V1455.3z M2736,1446.6l-91.4,75.9
		v-111.1l91.4-75.9V1446.6z M2644.6,1522.5l-336.8-53.6v-111.1l336.8,53.6V1522.5z M2884.4,1328.1l-62.4-9.9l-31.3,26l-54.6-8.7
		l-91.4,75.9l-336.8-53.6l212.9-176.9l453.9,72.3L2884.4,1328.1z"/>
</g>
<g id="_27.0102">
	<path id="on-18" class="st0" d="M3303.3,1416.6l-212.9,176.9v-111.1l212.9-176.9V1416.6z M3090.4,1593.5l-328.7-52.4V1430
		l328.7,52.4V1593.5z M2761.7,1430.1l212.9-176.9l328.7,52.4l-212.9,176.9L2761.7,1430.1z"/>
</g>
<g id="_25.0101">
	<path id="on-19" class="st0" d="M3624.4,1467.8l-212.9,176.9v-111.1l212.9-176.9V1467.8z M3624.4,1356.7l-212.9,176.9l-321.1-51.1
		l212.9-176.9L3624.4,1356.7z M3411.5,1533.5v111.1l-321.1-51.1v-111.1L3411.5,1533.5z"/>
</g>
<g id="haus_b3_treppe_1og_rechts">
	<path id="on-20" class="st0" d="M3620,1587.4l-91.4,75.9v-111.1l91.4-75.9V1587.4z M3528.6,1663.3l-117.1-18.6v-111.1l117.1,18.6
		V1663.3z M3411.5,1533.5l122.7-101.9l62.4,9.9l-31.3,26l31.3,5l23.4,3.7l-91.4,75.9L3411.5,1533.5z M3596.6,1441.5v31l-31.3-5
		L3596.6,1441.5z"/>
</g>
<g id="_25.0102">
	<path id="on-21" class="st0" d="M3596.6,1441.6l-31.3,26v80.2l-31.2-5v-111.1L3596.6,1441.6z M3565.3,1467.6l31.3-26l-62.4-9.9
		l90.2-74.9l610,97.1l-93.6,77.8l-325.6-51.9l-27.9,23.1L3565.3,1467.6z M4234.4,1564.9l-93.6,77.8v-111.1l93.6-77.8V1564.9z
		 M4140.7,1642.7l-325.5-51.9v-111.1l325.6,51.9L4140.7,1642.7z M3815.2,1590.9l-27.9,23.1v-111.1l27.9-23.1V1590.9z M3787.3,1614
		l-222-35.3v-111.1l222,35.3V1614z"/>
</g>
<g id="_25.0103">
	<path id="on-22" class="st0" d="M3528.6,1663.3v-111.1l492.9,78.5v111.1L3528.6,1663.3z M3528.6,1552.2l91.4-75.9l167.3,26.6
		l27.9-23.1l325.6,51.9l-119.3,99.1L3528.6,1552.2z M4140.8,1642.7l-119.3,99.1v-111.1l119.3-99.1V1642.7z"/>
</g>
<g id="haus_b1_treppe_1og_rechts">
	<path id="on-23" class="st0" d="M3845.8,687.3l-193.4-46.9V529.3l193.4,46.9V687.3z M3968.9,620.1l-123.1,67.2V576.1l123.1-67.2
		V620.1z M3968.9,508.9l-123.1,67.2l-193.4-46.9l79.5-43.4l136.7,33.1l43.6-23.8L3968.9,508.9z"/>
</g>
<g id="_35.0103">
	<path id="on-24" class="st0" d="M3230.8,637.6l-176.9-42.9V483.6l176.9,42.9V637.6z M4014.1,595.4L3969,620V509l45.1-24.6V595.4z
		 M3731.9,597l-45.3,24.7V510.6l45.3-24.7V597z M3686.7,621.7l-70.2-17V493.5l70.2,17V621.7z M3616.5,593.1l-92.6-22.4V459.5
		l107.2,26l-14.6,8L3616.5,593.1L3616.5,593.1z M3523.9,570.7l-52,28.4V487.9l52-28.4V570.7z M3471.9,599.1l-118.1-28.6V459.3
		l118.1,28.6V599.1z M3353.8,570.4l-123.1,67.2V526.5l123.1-67.2V570.4z M4014.1,484.3L3969,509l-56.8-13.8l-43.6,23.8l-136.7-33.1
		l-45.3,24.7l-70.2-17l14.6-8l-107.2-26l-52,28.4l-118.1-28.6l-123.1,67.2l-176.9-42.9L3348.1,323L4014.1,484.3z M3732,597V485.9
		l136.7,33.1v111.1L3732,597z M3868.6,630.1V519l43.6-23.8v111.1L3868.6,630.1z M3912.2,495.2l56.7,13.8v111.1l-56.7-13.7V495.2z"/>
</g>
<g id="_35.0102">
	<path id="on-25" class="st0" d="M3719.6,756.1l-488.9-118.5V526.5l489,118.5L3719.6,756.1z M3845.8,687.3l-126.2,68.9V645
		l126.2-68.9V687.3z M3686.7,510.6v27l-34.3-8.3L3686.7,510.6z M3523.9,459.6l107.2,26l-14.6,8l14.7,3.5l55.5,13.5l-34.3,18.7
		l34.3,8.3l159.1,38.6L3719.7,645l-488.9-118.5l123.1-67.2l118.1,28.6L3523.9,459.6z M3616.5,493.6l14.6-8v11.5L3616.5,493.6z"/>
</g>
<g id="_35.0101">
	<path id="on-26" class="st0" d="M4014.1,484.3l290.1,70.3l-294.4,160.7L3719.6,645L4014.1,484.3z M3719.6,645l290.2,70.3v111.1
		l-290.2-70.3V645z M4304.2,554.7v111.1l-294.4,160.7V715.3L4304.2,554.7z"/>
</g>
<g id="haus_b1_treppe_1og_links">
	<path id="on-27" class="st0" d="M4491.4,733.7l-56.7-13.8l169.6-92.6l106.4,25.8l-127.8,69.8l-49.7-12L4491.4,733.7z M4434.7,720
		l56.7,13.8v111.1l-56.7-13.8V720z M4491.4,733.7l41.8-22.8v111.2l-41.8,22.8V733.7z M4533.2,710.9l49.7,12v111.2l-49.7-12V710.9z
		 M4582.9,722.9l127.8-69.8v111.1L4582.9,834V722.9z"/>
</g>
<g id="haus_b1_treppe_2og_rechts">
	<path id="on-28" class="st0" d="M3845.8,576.1l-193.4-46.9V418.1l193.4,46.9V576.1z M3968.9,508.9l-123.1,67.2v-111l123.1-67.2
		V508.9z M3968.9,397.8L3845.8,465l-193.4-46.9l79.5-43.4l136.7,33.1l43.6-23.8L3968.9,397.8z"/>
</g>
<g id="_35.0203">
	<path id="on-29" class="st0" d="M3230.8,526.5l-176.9-42.9V372.5l176.9,42.9V526.5z M4014.1,484.3l-45.1,24.6V397.8l45.1-24.6
		V484.3z M3731.9,485.9l-45.3,24.7V399.4l45.3-24.7V485.9z M3686.7,510.6l-70.2-17V382.4l70.2,17V510.6z M3616.5,482l-92.6-22.4
		V348.4l107.2,26l-14.6,8L3616.5,482L3616.5,482z M3523.9,459.5l-52,28.4V376.8l52-28.4V459.5z M3471.9,487.9l-118.1-28.6V348.2
		l118.1,28.6V487.9z M3353.8,459.3l-123.1,67.2V415.4l123.1-67.2V459.3z M4014.1,373.2l-45.1,24.6l-56.8-13.8l-43.6,23.8
		l-136.7-33.1l-45.3,24.7l-70.2-17l14.6-8l-107.2-26l-52,28.4l-118.1-28.6l-123.1,67.2l-176.9-42.9l294.4-160.7L4014.1,373.2z
		 M3732,485.9V374.7l136.7,33.1V519L3732,485.9z M3868.6,519V407.9l43.6-23.8v111.1L3868.6,519z M3912.2,384.1l56.7,13.8V509
		l-56.7-13.7V384.1z"/>
</g>
<g id="_35.0202">
	<path id="on-30" class="st0" d="M3719.6,645l-488.9-118.5V415.4l488.9,118.5V645z M3845.8,576.1L3719.7,645V533.9l126.2-68.8
		L3845.8,576.1L3845.8,576.1z M3686.7,399.4v27l-34.3-8.3L3686.7,399.4z M3523.9,348.4l107.2,26l-14.6,8l14.6,3.6l55.5,13.5
		l-34.3,18.7l34.3,8.3l159.1,38.6l-126.2,68.8l-488.9-118.5l123.1-67.2l118.1,28.6L3523.9,348.4z M3616.5,382.4l14.6-8V386
		L3616.5,382.4z"/>
</g>
<g id="_35.0201">
	<path id="on-31" class="st0" d="M4014.1,373.2l290.1,70.3l-294.4,160.7l-290.2-70.3L4014.1,373.2z M3719.6,533.9l290.2,70.4v111.1
		L3719.7,645L3719.6,533.9z M4304.2,443.5v111.1l-294.4,160.7V604.2L4304.2,443.5z"/>
</g>
<g id="haus_b1_treppe_2og_links">
	<path id="on-32" class="st0" d="M4491.4,622.6l-56.7-13.8l169.6-92.6l106.4,25.8l-127.8,69.8l-49.7-12.1L4491.4,622.6z
		 M4434.7,608.9l56.7,13.8v111.1l-56.7-13.8V608.9z M4491.4,622.6l41.8-22.8v111.1l-41.8,22.8V622.6z M4533.2,599.8l49.7,12.1V723
		l-49.7-12V599.8z M4582.9,611.8l127.8-69.8v111.1l-127.8,69.8V611.8z"/>
</g>
<g id="_33.0202">
	<path id="on-33" class="st0" d="M4535.7,744.5l-124.8,68.1V701.4l124.8-68.1V744.5z M4535.7,633.4l-124.8,68.1l-401.1-97.2
		l294.4-160.7l300.1,72.8L4434.7,609L4535.7,633.4z M4410.9,701.4v111.1l-401.1-97.2V604.2L4410.9,701.4z M4604.3,516.3v111.1
		l-68.6,37.5v-31.5l-101-24.5L4604.3,516.3z"/>
</g>
<g id="_33.0201">
	<path id="on-34" class="st0" d="M4722.2,888.1l-311.3-75.5V701.4l311.3,75.5V888.1z M5016.6,727.4l-294.4,160.7V776.9l294.4-160.7
		V727.4z M4722.2,776.9l-311.3-75.5l80.5-43.9l44.3-24.2l-44.3-10.7l41.8-22.8l49.7,12.1l127.9-69.8l306,74.2L4722.2,776.9z
		 M4491.4,622.6l44.3,10.7l-44.3,24.2V622.6z"/>
</g>
<g id="_31.0202">
	<path id="on-35" class="st0" d="M5993.5,1124.8l-194.1-43.5V970.2l194.1,43.5V1124.8z M5768,1099.8l-66.4-14.9V973.8l66.4,14.9
		V1099.8z M5701.7,1057.5l-158-35.4v-111l191.5,42.9l-33.6,19.8L5701.7,1057.5z M5799.4,1081.3l-31.3,18.5V988.7l31.3-18.5V1081.3z
		 M6186.2,899.8v111.1l-192.8,113.9v-111.1L6186.2,899.8z M6186.2,899.8l-192.8,113.9l-194.1-43.5l-31.3,18.5l-66.4-14.9l33.6-19.8
		l-191.5-42.9l190.5-112.5L6186.2,899.8z"/>
</g>
<g id="haus_b2_treppe_2og_rechts">
	<path id="on-36" class="st0" d="M5666,994.9l260.5,58.3v111.1L5666,1106V994.9z M5926.5,1053.2L5666,994.9l35.7-21.1l66.4,14.9
		l31.3-18.5l194.1,43.5L5926.5,1053.2z M5926.5,1053.2l67-39.6v111.1l-67,39.6V1053.2z"/>
</g>
<g id="_31.0201">
	<path id="on-37" class="st0" d="M5926.5,1164.3l-188.1,111.1v-111.1l188.1-111.1V1164.3z M5286.3,1063.1L5543.7,911l191.5,42.9
		l-69.3,40.9l69.3,15.5l191.2,42.8l-188.1,111.1L5286.3,1063.1z M5286.3,1063.1l452,101.2v111.1l-452-101.2V1063.1z M5735.3,954
		v56.4l-69.3-15.5L5735.3,954z"/>
</g>
<g id="_29.0203">
	<path id="on-38" class="st0" d="M5554.5,1384.1l-260.5-58.3v-111.1l260.5,58.3V1384.1z M5554.5,1384.1V1273l183.8-108.6v111.1
		L5554.5,1384.1z M5554.5,1272.9l-260.5-58.3l-191.5-42.9l183.8-108.6l452,101.2L5554.5,1272.9z M5294,1325.7l-191.5-42.9v-111.1
		l191.5,42.9V1325.7z"/>
</g>
<g id="haus_b2_treppe_2og_links">
	<path id="on-39" class="st0" d="M5554.5,1384.1l-67,39.6v-111.1l67-39.6V1384.1z M5487.5,1423.7l-194.1-43.5v-111.1l194.1,43.5
		V1423.7z M5293.4,1354.7l-35.1-7.9v-111.1l66.4,14.9l-31.3,18.5V1354.7z M5258.3,1235.7l35.7-21.1l260.5,58.3l-67,39.6l-194.1-43.4
		l31.3-18.5L5258.3,1235.7z"/>
</g>
<g id="_29.0202">
	<path id="on-40" class="st0" d="M5324.7,1361.7l-152.8,90.2v-111.1l152.8-90.2V1361.7z M5172,1451.9l-68.4-15.3v-111.1l68.4,15.3
		V1451.9z M5103.6,1436.6l-160.6,94.9v-111.1l160.6-94.9V1436.6z M4943,1531.5l-189.6-42.4V1378l189.6,42.5V1531.5z M5102.5,1171.7
		l191.5,42.9l-35.7,21.1l35.7,8l30.7,6.9l-152.8,90.2l-68.4-15.3l-160.6,94.9l-189.6-42.5L5102.5,1171.7z M5258.3,1235.7l35.7-21.1
		v29.1L5258.3,1235.7z"/>
</g>
<g id="_29.0201">
	<path id="on-41" class="st0" d="M5487.5,1423.6l-282.1,166.7v-111.1l282.1-166.7V1423.6z M5205.4,1590.3l-262.4-58.8v-111.1
		l262.4,58.8V1590.3z M5487.5,1312.5l-282.1,166.7l-262.4-58.8l160.6-94.9l68.4,15.3l121.5-71.7L5487.5,1312.5z"/>
</g>
<g id="HA-3-4">
	<path id="on-42" class="st0" d="M1702.4,676.6l44.6-37.1l61.2,9.7l90.4-75.1l297.1,47.3l-135,112.1L1702.4,676.6z M1702.4,676.6
		l358.3,57.1v111.1l-358.3-57L1702.4,676.6L1702.4,676.6z M2060.7,733.6l135-112.1v111.1l-135,112.1V733.6z"/>
</g>
<g id="_27.0201">
	<path id="on-43" class="st0" d="M2857.5,1234.5l-35.6,29.5v-57l-54.6-8.7l90.2-75L2857.5,1234.5L2857.5,1234.5z M2821.9,1318.2
		l-31.3,26v-111.1l31.3-26V1318.2L2821.9,1318.2z M2790.6,1344.2l-54.6-8.7v-111.1l54.6,8.7V1344.2z M2736,1335.5l-91.4,75.9v-111.1
		l91.4-75.9V1335.5z M2644.6,1411.4l-336.8-53.6v-111.1l336.8,53.6V1411.4z M2767.3,1198.4l54.6,8.7l-31.3,26l-54.6-8.7l-91.4,75.9
		l-336.8-53.6l212.9-176.9l336.8,53.6L2767.3,1198.4z"/>
</g>
<g id="haus_b3_treppe_2og_links_">
	<path id="on-44" class="st0" d="M2884.4,1328.1L2761.7,1430v-111.1l122.7-101.9V1328.1z M2761.7,1430.1l-117.1-18.6v-111.1
		l117.1,18.6V1430.1z M2821.9,1207.1l62.4,9.9l-122.7,101.9l-117.1-18.6l91.4-75.9l54.7,8.7L2821.9,1207.1z"/>
</g>
<g id="_27.0202">
	<path id="on-45" class="st0" d="M3303.3,1305.5l-212.9,176.9v-111.1l212.9-176.9V1305.5z M3090.4,1482.4l-328.7-52.3V1319
		l328.7,52.4V1482.4z M3090.4,1371.3l-328.7-52.4l10.4-8.7l112.3-93.3l-117.1-18.6l90.2-75l445.8,71L3090.4,1371.3z M2767.3,1309.5
		v-111.1l117.1,18.6l-112.3,93.3L2767.3,1309.5z"/>
</g>
<g id="_25.0201">
	<path id="on-46" class="st0" d="M3624.4,1356.7l-212.9,176.9v-111.1l212.9-176.9V1356.7z M3624.4,1245.5l-212.9,176.9l-321.1-51.1
		l212.9-176.9L3624.4,1245.5z M3411.5,1422.4v111.1l-321.1-51.1v-111.1L3411.5,1422.4z"/>
</g>
<g id="haus_b3_treppe_2og_rechts">
	<path id="on-47" class="st0" d="M3620,1476.2l-91.4,75.9V1441l91.4-75.9V1476.2z M3528.6,1552.2l-117.1-18.6v-111.1l117.1,18.7
		V1552.2z M3411.5,1422.4l122.7-101.9l62.4,9.9l-31.3,26l31.3,5l23.4,3.7l-91.4,75.9L3411.5,1422.4z M3596.6,1330.4v31l-31.3-5
		L3596.6,1330.4z"/>
</g>
<g id="_25.0202">
	<path id="on-48" class="st0" d="M3596.6,1330.4l-31.3,26v80.2l-31.2-5v-111.1L3596.6,1330.4z M3565.3,1356.4l31.3-26l-62.4-9.9
		l90.2-75l610,97.1l-93.6,77.8l-325.6-51.8l-27.9,23.1L3565.3,1356.4z M4234.4,1453.8l-93.6,77.8v-111.2l93.6-77.8V1453.8z
		 M4140.7,1531.6l-325.5-51.9v-111.1l325.6,51.9L4140.7,1531.6z M3815.2,1479.7l-27.9,23.1v-111.1l27.9-23.1V1479.7z M3787.3,1502.9
		l-222-35.3v-111.1l222,35.4V1502.9z"/>
</g>
<g id="_25.0102_1">
	<path id="on-49" class="st0" d="M3596.6,1330.4l-31.3,26v80.2l-31.2-5v-111.1L3596.6,1330.4z M3565.3,1356.4l31.3-26l-62.4-9.9
		l90.2-75l610,97.1l-93.6,77.8l-325.6-51.8l-27.9,23.1L3565.3,1356.4z M4234.4,1453.8l-93.6,77.8v-111.2l93.6-77.8V1453.8z
		 M4140.7,1531.6l-325.5-51.9v-111.1l325.6,51.9L4140.7,1531.6z M3815.2,1479.7l-27.9,23.1v-111.1l27.9-23.1V1479.7z M3787.3,1502.9
		l-222-35.3v-111.1l222,35.4V1502.9z"/>
</g>
<g id="_25.0203">
	<path id="on-50" class="st0" d="M3528.6,1552.2v-111.1l492.9,78.5v111.1L3528.6,1552.2z M3528.6,1441.1l91.4-75.9l167.3,26.6
		l27.9-23.1l325.6,51.9l-119.3,99.1L3528.6,1441.1z M4140.8,1531.6l-119.3,99.1v-111.1l119.3-99.1V1531.6z"/>
</g>
<g id="haus_b1_treppe_1og_rechts_1">
	<path id="on-51" class="st0" d="M3845.8,576.1l-193.4-46.9V418.1l193.4,46.9V576.1z M3968.9,508.9l-123.1,67.2v-111l123.1-67.2
		V508.9z M3968.9,397.8L3845.8,465l-193.4-46.9l79.5-43.4l136.7,33.1l43.6-23.8L3968.9,397.8z"/>
</g>
<g id="haus_b1_treppe_1og_links_1">
	<path id="on-52" class="st0" d="M4491.4,622.6l-56.7-13.8l169.6-92.6l106.4,25.8l-127.8,69.8l-49.7-12.1L4491.4,622.6z
		 M4434.7,608.9l56.7,13.8v111.1l-56.7-13.8V608.9z M4491.4,622.6l41.8-22.8v111.1l-41.8,22.8V622.6z M4533.2,599.8l49.7,12.1V723
		l-49.7-12V599.8z M4582.9,611.8l127.8-69.8v111.1l-127.8,69.8V611.8z"/>
</g>
<g id="HA-2-4">
	<path id="on-53" class="st0" d="M1702.4,787.7l44.6-37.1l61.2,9.7l90.4-75.1l297.1,47.3l-135,112.1L1702.4,787.7z M1702.4,787.7
		l358.3,57v111.1l-358.3-57.1L1702.4,787.7L1702.4,787.7z M2060.7,844.7l135-112.1v111.1l-135,112.1V844.7z"/>
</g>
<g id="HA-2-7">
	<path id="on-54" class="st0" d="M1453.9,657.9V546.8l358.2,57v111.1L1453.9,657.9z M1453.9,546.8l136.8-113.6l358.2,57
		l-136.8,113.6L1453.9,546.8z M1948.9,490.2v111.1L1812.1,715V603.9L1948.9,490.2z"/>
</g>
<g id="HA-2-8">
	<path id="on-55" class="st0" d="M1317.2,771.6V660.4l358.2,57v111.1L1317.2,771.6z M1317.2,660.4L1454,546.8l358.2,57l-136.8,113.6
		L1317.2,660.4z M1812.2,603.8V715l-136.8,113.6V717.5L1812.2,603.8z"/>
</g>
<g id="HA-2-5">
	<path id="on-56" class="st0" d="M1837.4,675.6l140.3-116.5l358.3,57l-140.3,116.6L1837.4,675.6z M2195.7,732.6L2336,616.1v111.1
		l-140.3,116.5V732.6z"/>
</g>
<g id="HA-2-9">
	<path id="on-57" class="st0" d="M1180.4,885.2V774.1l358.2,57v111.1L1180.4,885.2z M1180.4,774.1l136.8-113.6l358.2,57
		l-136.8,113.6L1180.4,774.1z M1675.4,717.5v111.1l-136.8,113.6V831.1L1675.4,717.5z"/>
</g>
<g id="HA-2-10">
	<path id="on-58" class="st0" d="M1043.6,998.8V887.7l358.2,57v111.1L1043.6,998.8z M1043.6,887.7l136.8-113.6l358.2,57
		l-136.8,113.6L1043.6,887.7z M1538.6,831.1v111.1l-136.8,113.6V944.7L1538.6,831.1z"/>
</g>
<g id="HA-2-3">
	<path id="on-59" class="st0" d="M1925.7,956.9l-358.3-57.1l135-112.1l358.3,57L1925.7,956.9z M1567.4,899.9l358.3,57.1v111.2
		l-358.3-57.1L1567.4,899.9L1567.4,899.9z M1925.7,956.9l135-112.1v111.1l-135,112.1V956.9z"/>
</g>
<g id="HA-2-11">
	<path id="on-60" class="st0" d="M906.9,1001.3l136.8-113.6l358.2,57l-136.8,113.6L906.9,1001.3z M1401.8,944.7v111.1L1265,1169.4
		v-111.1L1401.8,944.7z"/>
</g>
<g id="HA-2-2">
	<path id="on-61" class="st0" d="M1432.1,1012.3l135.3-112.4l358.3,57.1l-135.3,112.4L1432.1,1012.3z M1790.4,1069.3l135.3-112.4
		v111.2l-135.3,112.4V1069.3z"/>
</g>
<g id="HA-3-7">
	<path id="on-62" class="st0" d="M1453.9,546.8V435.7l358.2,57v111.1L1453.9,546.8z M1453.9,435.7l136.8-113.6l358.2,57
		l-136.8,113.6L1453.9,435.7z M1948.9,379.1v111.1l-136.8,113.6V492.7L1948.9,379.1z"/>
</g>
<g id="HA-3-8">
	<path id="on-63" class="st0" d="M1317.2,660.4V549.3l358.2,57v111.1L1317.2,660.4z M1317.2,549.3L1454,435.7l358.2,57l-136.8,113.6
		L1317.2,549.3z M1812.2,492.7v111.1l-136.8,113.6v-111L1812.2,492.7z"/>
</g>
<g id="HA-3-5">
	<path id="on-64" class="st0" d="M1837.4,564.4l140.3-116.5L2336,505l-140.3,116.5L1837.4,564.4z M2195.7,621.5L2336,504.9V616
		l-140.3,116.6V621.5z"/>
</g>
<g id="HA-3-9">
	<path id="on-65" class="st0" d="M1180.4,774.1V662.9l358.2,57V831L1180.4,774.1z M1180.4,662.9l136.8-113.6l358.2,57L1538.6,720
		L1180.4,662.9z M1675.4,606.4v111.1l-136.8,113.6V720L1675.4,606.4z"/>
</g>
<g id="HA-3-10">
	<path id="on-66" class="st0" d="M1043.6,887.7V776.5l358.2,57v111.1L1043.6,887.7z M1043.6,776.5l136.8-113.6l358.2,57
		l-136.8,113.6L1043.6,776.5z M1538.6,720v111.1l-136.8,113.6V833.6L1538.6,720z"/>
</g>
<g id="HA-3-3">
	<path id="on-67" class="st0" d="M1925.7,845.8l-358.3-57l135-112.1l358.3,57.1L1925.7,845.8z M1567.4,788.8l358.3,57v111.1
		l-358.3-57.1L1567.4,788.8L1567.4,788.8z M1925.7,845.8l135-112.1v111.1l-135,112.1V845.8z"/>
</g>
<g id="HA-3-11">
	<path id="on-68" class="st0" d="M906.9,1001.3V890.2l358.2,57v111.1L906.9,1001.3z M906.9,890.2l136.8-113.6l358.2,57l-136.8,113.6
		L906.9,890.2z M1401.8,833.6v111.1L1265,1058.3V947.2L1401.8,833.6z"/>
</g>
<g id="HA-3-2">
	<path id="on-69" class="st0" d="M1432.1,1012.3V901.2l358.3,57v111.1L1432.1,1012.3z M1432.1,901.2l135.3-112.4l358.3,57
		l-135.3,112.4L1432.1,901.2z M1790.4,958.2l135.3-112.4v111.1l-135.3,112.4V958.2z"/>
</g>
<g id="HA-3-1">
	<path id="on-70" class="st0" d="M1790.4,960.5l-208.1,172.9l-358.3-57l208.1-172.9L1790.4,960.5z M1582.3,1133.4l208.1-172.9v111.1
		l-208.1,172.9V1133.4L1582.3,1133.4z M1224,1076.4l358.3,57.1v111.1l-358.3-57.1V1076.4z"/>
</g>
<g id="haus_a_treppe_2og">
	<path id="on-71" class="st0" d="M1590.6,322.1l117.1-97.3l451.9,72l-322.3,267.7l61.2,9.8l-90.4,75.1l-61.2-9.7L1224,1074.1
		l-93.7-14.9l706.3-586.8l112.2-93.3L1590.6,322.1z M1130.3,1170.3v-111.1l93.7,14.9v111.1L1130.3,1170.3z"/>
</g>
<g id="HA-3-6">
	<path id="on-72" class="st0" d="M2159.7,296.7l358.3,57l-182,151.2l-358.3-57.1L2159.7,296.7z M2336,505l182-151.2v111.1
		l-182,151.2V505z"/>
</g>
<g id="HA-3-12">
	<path id="on-73" class="st0" d="M1130.3,1170.3l-358.3-57v-111.2l358.3,57.1V1170.3z M1130.3,1059.1l-358.3-57l134.7-111.9
		l358.3,57.1L1130.3,1059.1z"/>
</g>
<g id="haus_b1_treppe_3og_rechts">
	<path id="on-74" class="st0" d="M3845.8,465.1l-193.4-46.9V307l193.4,46.9V465.1z M3968.9,397.9l-123.1,67.2V353.9l123.1-67.2
		V397.9z M3968.9,286.8L3845.8,354l-193.4-46.9l79.5-43.4l136.7,33.1l43.6-23.8L3968.9,286.8z"/>
</g>
<g id="_35.0303">
	<path id="on-75" class="st0" d="M3230.8,415.4l-176.9-42.9V261.3l176.9,42.9V415.4z M4014.1,373.2l-45.1,24.6V286.7l45.1-24.6
		V373.2z M3731.9,374.7l-45.3,24.7V288.3l45.3-24.7V374.7z M3686.7,399.4l-70.2-17V271.3l70.2,17V399.4z M3616.5,370.9l-92.6-22.4
		V237.3l107.2,26l-14.6,8L3616.5,370.9L3616.5,370.9z M3523.9,348.4l-52,28.4V265.7l52-28.4V348.4z M3471.9,376.8l-118.1-28.6V237.1
		l118.1,28.6V376.8z M3353.8,348.2l-123.1,67.2V304.2l123-67.2L3353.8,348.2z M4014.1,262.1l-45.1,24.6l-56.7-13.7l-43.6,23.8
		L3732,263.7l-45.3,24.7l-70.2-17l14.6-8l-107.2-26l-52,28.4l-118.1-28.6l-123.1,67.2l-176.9-42.9l294.4-160.7L4014.1,262.1z
		 M3731.9,374.7V263.6l136.7,33.1v111.1L3731.9,374.7z M3868.6,407.9V296.7l43.6-23.8V384L3868.6,407.9z M3912.2,273l56.7,13.8
		v111.1l-56.7-13.8V273z"/>
</g>
<g id="_35.0302">
	<path id="on-76" class="st0" d="M3850.8,565.7l-620.1-150.3V304.2l620.1,150.3L3850.8,565.7L3850.8,565.7z M3977,496.8l-126.2,68.9
		V454.6l126.2-68.9V496.8z M3686.7,288.3v27l-34.3-8.3L3686.7,288.3z M3523.9,237.3l107.2,26l-14.6,8l14.6,3.6l55.5,13.5l-34.3,18.7
		l34.3,8.3l290.3,70.4l-126.2,68.9l-620.1-150.3l123.1-67.2l118.1,28.6L3523.9,237.3z M3616.5,271.3l14.6-8v11.6L3616.5,271.3z"/>
</g>
<g id="_35.0301">
	<path id="on-77" class="st0" d="M4014.1,262.1L4453,368.5l-294.4,160.7l-307.7-74.6l126.2-68.9l-131.2-31.8L4014.1,262.1z
		 M4453,368.5v111.1l-294.4,160.7V529.1L4453,368.5z M3845.8,465.1V353.9l131.2,31.8l-126.2,68.9v11.7L3845.8,465.1z M4158.5,640.3
		l-307.7-74.6V454.6l307.7,74.6V640.3z"/>
</g>
<g id="_29.0303">
	<path id="on-78" class="st0" d="M5554.5,1272.9l-260.5-58.3v-111.1l260.5,58.3V1272.9z M5554.5,1272.9v-111.1L5831,998.4v111.1
		L5554.5,1272.9z M5554.5,1161.8l-260.5-58.3l82.2-48.6l-191.5-42.8L5379,897.3l452,101.2L5554.5,1161.8z M5294,1147.6l-109.4-24.5
		V1012l191.5,42.8l-82.2,48.6L5294,1147.6z"/>
</g>
<g id="haus_b2_treppe_3og_links">
	<path id="on-79" class="st0" d="M5554.5,1272.9l-67,39.6v-111.1l67-39.6V1272.9z M5487.5,1312.5l-194.1-43.5v-111.1l194.1,43.5
		V1312.5z M5293.4,1243.6l-35.1-7.9v-111.1l66.4,14.9l-31.3,18.5V1243.6z M5258.3,1124.6l35.7-21.1l260.5,58.3l-67,39.6l-194.1-43.5
		l31.3-18.5L5258.3,1124.6z"/>
</g>
<g id="_29.0302">
	<path id="on-80" class="st0" d="M5324.7,1250.6l-152.8,90.2v-111.1l152.8-90.2V1250.6z M5172,1340.8l-68.4-15.3v-111.1l68.4,15.3
		V1340.8z M5103.6,1325.5l-160.6,94.9v-111.1l160.6-94.9V1325.5z M4943,1420.4l-189.6-42.5v-111.1l189.6,42.5V1420.4z
		 M5376.2,1166.1l-51.5,30.5v-57l-66.4-14.9l117.9-69.7V1166.1z M5258.3,1124.6l66.4,14.9l-152.8,90.2l-68.4-15.3l-160.6,94.9
		l-189.6-42.5l431.4-254.8l191.5,42.8L5258.3,1124.6z"/>
</g>
<g id="_29.0301">
	<path id="on-81" class="st0" d="M5487.5,1312.5l-282.1,166.7v-111.1l282.1-166.7V1312.5z M5205.4,1479.2l-262.4-58.8v-111.1
		l262.4,58.8V1479.2z M5487.5,1201.4l-282.1,166.7l-262.4-58.8l160.6-94.9l68.4,15.3l121.5-71.8L5487.5,1201.4z"/>
</g>
<g id="_25.0301">
	<path id="on-82" class="st0" d="M3534.2,1320.5l-122.7,101.9v-111.1l122.7-101.9V1320.5z M3534.2,1209.4l-122.7,101.9l-483.2-76.9
		l212.8-176.9l345.3,55l-90.2,74.9l90.2,14.4L3534.2,1209.4z M3411.5,1311.3v111.1l-483.2-76.9v-111.1L3411.5,1311.3z
		 M3396.3,1187.4l90.2-74.9v89.3L3396.3,1187.4z"/>
</g>
<g id="haus_b3_treppe_3og_rechts">
	<path id="on-83" class="st0" d="M3620,1365.1l-91.4,75.9v-111.1l91.4-75.9V1365.1z M3528.6,1441.1l-117.1-18.6v-111.1l117.1,18.6
		V1441.1z M3411.5,1311.3l122.7-101.9l62.4,9.9l-31.3,26l31.3,5l23.4,3.7l-91.4,75.9L3411.5,1311.3z M3596.6,1219.3v30.9l-31.3-5
		L3596.6,1219.3z"/>
</g>
<g id="_25.0302">
	<path id="on-84" class="st0" d="M3596.6,1219.3l-31.3,26v80.2l-169-26.9v-111.1L3596.6,1219.3z M3565.3,1245.3l31.3-26l-200.3-31.9
		l90.2-74.9l747.9,119.1l-93.6,77.8l-325.6-51.9l-27.9,23.1L3565.3,1245.3z M4234.4,1342.7l-93.6,77.8v-111.1l93.6-77.8V1342.7z
		 M4140.7,1420.5l-325.5-51.9v-111.1l325.6,51.9L4140.7,1420.5z M3815.2,1368.6l-27.9,23.1v-111.1l27.9-23.1V1368.6z M3787.3,1391.8
		l-222-35.4v-111.1l222,35.4V1391.8z"/>
</g>
<g id="_25.0303">
	<path id="on-85" class="st0" d="M3528.6,1441.1V1330l492.9,78.5v111.1L3528.6,1441.1z M3528.6,1329.9l91.4-75.9l167.3,26.6
		l27.9-23.1l325.6,51.9l-119.3,99.1L3528.6,1329.9z M4140.8,1420.5l-119.3,99.1v-111.1l119.3-99.1V1420.5z"/>
</g>
<g id="haus_b1_treppe_eg_rechts">
	<path id="on-86" class="st0" d="M3845.8,798.4l-193.4-46.9V640.4l193.4,46.9V798.4z M3968.9,731.2l-123.1,67.2V687.3l123.1-67.2
		V731.2z M3968.9,620.1l-123.1,67.2l-193.4-46.9l79.5-43.4l136.7,33.1l43.6-23.8L3968.9,620.1z"/>
</g>
<g id="_35.0003">
	<path id="on-87" class="st0" d="M3230.8,748.7l-176.9-42.9V594.7l176.9,42.9V748.7z M4014.1,706.6l-45.1,24.6V620.1l45.1-24.6
		V706.6z M3731.9,708.1l-45.3,24.7V621.7l45.3-24.7V708.1z M3686.7,732.8l-70.2-17V604.7l70.2,17V732.8z M3616.5,704.2l-92.6-22.4
		V570.7l107.2,26l-14.6,8L3616.5,704.2L3616.5,704.2z M3523.9,681.7l-52,28.4v-111l52-28.4V681.7z M3471.9,710.1l-118.1-28.6V570.4
		l118,28.6L3471.9,710.1z M3353.8,681.5l-123.1,67.2V637.6l123.1-67.2V681.5z M4014.1,595.4l-45.2,24.7l-56.7-13.7l-43.6,23.8
		L3731.9,597l-45.3,24.7l-70.2-17l14.6-8l-107.2-26l-52,28.4l-118.1-28.6l-123.1,67.2l-176.9-42.9l294.4-160.7L4014.1,595.4z
		 M3731.9,708.1V597l136.7,33.1v111.1L3731.9,708.1z M3868.6,741.2V630.1l43.6-23.8v111.1L3868.6,741.2z M3912.2,606.3l56.7,13.8
		v111.1l-56.7-13.8V606.3z"/>
</g>
<g id="_35.0002">
	<path id="on-88" class="st0" d="M3719.6,867.2l-488.9-118.5V637.6l488.9,118.5V867.2z M3845.8,798.4l-126.2,68.9V756.1l126.2-68.9
		V798.4z M3686.7,621.7v27l-34.3-8.3L3686.7,621.7z M3523.9,570.7l107.2,26l-14.6,8l14.6,3.6l55.5,13.5l-34.3,18.7l34.3,8.3
		l159.1,38.6l-126.2,68.9l-488.9-118.5l123.1-67.2l118.1,28.6L3523.9,570.7z M3616.5,604.7l14.6-8v11.6L3616.5,604.7z"/>
</g>
<g id="_35.0001">
	<path id="on-89" class="st0" d="M4014.1,595.4l290.1,70.3l-294.4,160.7l-290.2-70.3L4014.1,595.4z M3719.6,756.1l290.2,70.3v111.1
		l-290.2-70.3V756.1z M4304.2,665.8v111.1l-294.4,160.7V826.4L4304.2,665.8z"/>
</g>
<g id="haus_b1_treppe_eg_links">
	<path id="on-90" class="st0" d="M4491.4,844.9l-56.7-13.8l169.6-92.6l106.4,25.8l-127.8,69.8l-49.7-12L4491.4,844.9z M4434.7,831.1
		l56.7,13.8V956l-56.7-13.8V831.1z M4491.4,844.9l41.8-22.8v111.1l-41.8,22.8V844.9z M4533.2,822.1l49.7,12v111.1l-49.7-12V822.1z
		 M4582.9,834.1l127.8-69.8v111.1l-127.8,69.8V834.1z"/>
</g>
<g id="_33.0002">
	<path id="on-91" class="st0" d="M4535.7,966.7l-124.8,68.1V923.7l124.8-68.1V966.7z M4535.7,855.6l-124.8,68.1l-401.1-97.2
		l294.4-160.7l300.1,72.8l-169.6,92.6L4535.7,855.6z M4410.9,923.7v111.1l-401.1-97.2V826.4L4410.9,923.7z M4604.3,738.5v111.1
		l-68.6,37.5v-31.5l-101-24.5L4604.3,738.5z"/>
</g>
<g id="_33.0001">
	<path id="on-92" class="st0" d="M4722.2,1110.3l-311.3-75.5V923.7l311.3,75.5V1110.3z M5016.6,949.6l-294.4,160.7V999.2
		l294.4-160.7V949.6z M4722.2,999.2l-311.3-75.5l80.5-43.9l44.3-24.2l-44.3-10.7l41.8-22.8l49.7,12l127.8-69.8l306,74.2
		L4722.2,999.2z M4491.4,844.9l44.3,10.7l-44.3,24.2V844.9z"/>
</g>
<g id="_31.0002">
	<path id="on-93" class="st0" d="M5993.5,1347l-194.1-43.5v-111.1l194.1,43.5V1347z M5768,1322l-66.4-14.9V1196l66.4,14.9V1322z
		 M5701.7,1278.3l-156.2-35v-111.1l191.5,42.9l-35.3,20.9V1278.3z M5799.4,1303.5L5768,1322v-111.1l31.3-18.5v111.1H5799.4z
		 M6186.2,1122v111.1L5993.4,1347v-111.1L6186.2,1122z M6186.2,1122l-192.8,113.9l-194.1-43.5l-31.3,18.5l-66.4-14.8l35.3-20.9
		l-191.5-42.9l188.8-111.5L6186.2,1122z"/>
</g>
<g id="haus_b2_treppe_eg_rechts">
	<path id="on-94" class="st0" d="M5666,1217.1l260.5,58.3v111.1l-260.5-58.3V1217.1z M5926.5,1275.5l-260.5-58.3l35.7-21.1
		l66.4,14.9l31.3-18.5l194.1,43.5L5926.5,1275.5z M5926.5,1275.5l67-39.6V1347l-67,39.6V1275.5z"/>
</g>
<g id="_31.0001">
	<path id="on-95" class="st0" d="M5926.5,1386.6l-188.1,111.1v-111.1l188.1-111.1V1386.6z M5286.3,1285.4l259.2-153.1l191.5,42.9
		l-71,42l71,15.9l189.5,42.4l-188.1,111.1L5286.3,1285.4z M5737,1175.2v57.9l-71-15.9L5737,1175.2z M5286.3,1285.4l452,101.2v111.1
		l-452-101.2V1285.4z"/>
</g>
<g id="_29.0003">
	<path id="on-96" class="st0" d="M5554.5,1606.3l-452-101.2V1394l452,101.2V1606.3z M5554.5,1606.3v-111.1l183.8-108.6v111.1
		L5554.5,1606.3z M5554.5,1495.2l-452-101.2l183.8-108.6l452,101.2L5554.5,1495.2z"/>
</g>
<g id="_27.0001">
	<path id="on-97" class="st0" d="M2863.4,1457.7l-41.5,34.5v-62.9l-48.7-7.8l90.2-74.9V1457.7z M2821.9,1540.4l-31.3,26v-111.1
		l31.3-26V1540.4L2821.9,1540.4z M2790.6,1566.4l-54.6-8.7v-111.1l54.6,8.7V1566.4z M2736,1557.7l-91.4,76v-111.2l91.4-75.9V1557.7z
		 M2644.6,1633.7l-336.8-53.7v-111.2l336.8,53.6V1633.7z M2773.2,1421.5l48.7,7.8l-31.3,26l-54.6-8.7l-91.4,75.9l-336.8-53.6
		l212.9-176.9l342.7,54.6L2773.2,1421.5z"/>
</g>
<g id="haus_b2_treppe_eg_links">
	<path id="on-98" class="st0" d="M5554.5,1606.3l-67,39.6v-111.1l67-39.6V1606.3z M5487.5,1645.9l-194.1-43.5v-111.1l194.1,43.5
		V1645.9z M5293.4,1576.9l-35.1-7.9v-111.1l66.4,14.9l-31.3,18.5V1576.9z M5258.3,1457.9l35.7-21.1l260.5,58.3l-67,39.6l-194.1-43.5
		l31.3-18.5L5258.3,1457.9z"/>
</g>
<g id="haus_b3_treppe_eg_links">
	<path id="on-99" class="st0" d="M2884.4,1550.4l-122.7,101.9v-111.1l122.7-101.9V1550.4z M2761.7,1652.3l-117.1-18.6v-111.1
		l117.1,18.6V1652.3z M2821.9,1429.3l62.4,10l-122.7,101.9l-117.1-18.6l91.4-75.9l54.7,8.7L2821.9,1429.3z"/>
</g>
<g id="_27.0002">
	<path id="on-100" class="st0" d="M3303.3,1527.8l-212.9,176.9v-111.1l212.9-176.9V1527.8z M3090.4,1704.6l-328.7-52.4v-111.1
		l328.7,52.4V1704.6z M3090.4,1593.5l-328.7-52.4l11.5-9.6l111.2-92.4l-111.2-17.7l90.2-74.9l439.9,70L3090.4,1593.5z
		 M2773.2,1421.5l111.2,17.7l-111.2,92.4V1421.5z"/>
</g>
<g id="_29.0002">
	<path id="on-101" class="st0" d="M5324.7,1583.9l-152.8,90.2V1563l152.8-90.2V1583.9z M5172,1674.2l-68.4-15.3v-111.1l68.4,15.3
		V1674.2z M5103.6,1658.9l-160.6,94.9v-111.1l160.6-94.9V1658.9z M4943,1753.8l-189.6-42.5v-111.1l189.6,42.5V1753.8z
		 M5102.5,1393.9l191.5,42.9l-35.7,21.1l35.7,8l30.7,6.9l-152.8,90.3l-68.4-15.3l-160.6,94.9l-189.6-42.5L5102.5,1393.9z
		 M5258.3,1457.9l35.7-21.1v29.1L5258.3,1457.9z"/>
</g>
<g id="_25.0001">
	<path id="on-102" class="st0" d="M3624.4,1578.9l-212.9,176.9v-111.1l212.9-176.9V1578.9z M3624.4,1467.8l-212.9,176.9l-321.1-51.1
		l212.9-176.9L3624.4,1467.8z M3411.5,1644.6v111.1l-321.1-51.1v-111.1L3411.5,1644.6z"/>
</g>
<g id="haus_b3_treppe_eg_rechts">
	<path id="on-103" class="st0" d="M3620,1698.5l-91.4,76v-111.2l91.4-75.9V1698.5z M3528.6,1774.5l-117.1-18.6v-111.2l117.1,18.6
		V1774.5z M3411.5,1644.7l122.7-102l62.4,9.9l-31.3,26l31.3,5l23.4,3.7l-91.4,75.9L3411.5,1644.7z M3596.6,1552.7v31l-31.3-5
		L3596.6,1552.7z"/>
</g>
<g id="_25.0002">
	<path id="on-104" class="st0" d="M3596.6,1552.7l-31.3,26v80.2l-31.2-5v-111.1L3596.6,1552.7z M3565.3,1578.7l31.3-26l-62.4-9.9
		l90.2-75l610,97.1l-93.6,77.8l-325.6-51.8l-27.9,23.1L3565.3,1578.7z M4234.4,1676.1l-93.6,77.8v-111.1l93.6-77.8V1676.1z
		 M4140.7,1753.9l-325.5-51.9v-111.1l325.6,51.9L4140.7,1753.9z M3815.2,1702l-27.9,23.1V1614l27.9-23.1V1702z M3787.3,1725.1
		l-222-35.4v-111.1l222,35.3V1725.1z"/>
</g>
<g id="_29.0001">
	<path id="on-105" class="st0" d="M5487.5,1645.9l-282.1,166.7v-111.1l282.1-166.7V1645.9z M5205.4,1812.5l-262.4-58.8v-111.1
		l262.4,58.8V1812.5z M5487.5,1534.8l-282.1,166.7l-262.4-58.8l160.6-94.9l68.4,15.3l121.5-71.8L5487.5,1534.8z"/>
</g>
<g id="_25.0003">
	<path id="on-106" class="st0" d="M3528.6,1774.4v-111.1l492.9,78.5v111.1L3528.6,1774.4z M3528.6,1663.3l91.4-75.9l167.3,26.6
		l27.9-23.1l325.6,51.9l-119.3,99.1L3528.6,1663.3z M4140.8,1753.8l-119.3,99.1v-111.1l119.3-99.1V1753.8z"/>
</g>
<g id="_28.0312">
	<path id="on-107" class="st0" d="M1130.3,1059.1l-358.3-57V891l358.3,57.1V1059.1z M1130.3,948L772,891l134.7-111.9l358.3,57
		L1130.3,948z"/>
</g>
<g id="_28.0403">
	<path id="on-108" class="st0" d="M1702.4,454.3l44.6-37.1l61.2,9.8l90.4-75.1l297.1,47.3l-135,112.1L1702.4,454.3z M1702.4,454.3
		l358.3,57v111.1l-358.3-57.1L1702.4,454.3L1702.4,454.3z M2060.7,511.3l135-112.1v111.1l-135,112.1V511.3z"/>
</g>
<g id="_28.0404">
	<path id="on-109" class="st0" d="M1453.9,324.6V213.4l358.2,57v111.1L1453.9,324.6z M1453.9,213.4l136.8-113.6l358.2,57
		l-136.8,113.6L1453.9,213.4z M1948.9,156.9V268l-136.8,113.6V270.5L1948.9,156.9z"/>
</g>
<g id="_28.0405">
	<path id="on-110" class="st0" d="M1317.2,438.2V327.1l358.2,57v111.1L1317.2,438.2z M1317.2,327.1L1454,213.4l358.2,57L1675.4,384
		L1317.2,327.1z"/>
</g>
<g id="_28.0402">
	<path id="on-111" class="st0" d="M1837.4,342.2l140.3-116.6l358.3,57.1l-140.3,116.5L1837.4,342.2z M2195.7,399.2L2336,282.7v111.1
		l-140.3,116.5V399.2z"/>
</g>
<g id="_28.0406">
	<path id="on-112" class="st0" d="M1180.4,551.8V440.7l358.2,57v111.1L1180.4,551.8z M1180.4,440.7l136.8-113.6l358.2,57
		l-136.8,113.6L1180.4,440.7z M1675.4,384.1v111.1l-136.8,113.6V497.7L1675.4,384.1z"/>
</g>
<g id="_28.0407">
	<path id="on-113" class="st0" d="M1043.6,665.4V554.3l358.2,57v111.2L1043.6,665.4z M1043.6,554.3l136.8-113.6l358.2,57
		l-136.8,113.6L1043.6,554.3z M1538.6,497.7v111.1l-136.8,113.6V611.3L1538.6,497.7z"/>
</g>
<g id="haus_a_aufenthaltsraum_4og">
	<path id="on-114" class="st0" d="M1925.7,623.5l-358.3-57.1l135-112.1l358.3,57L1925.7,623.5z M1567.4,566.5l358.3,57.1v111.1
		l-358.3-57.1L1567.4,566.5L1567.4,566.5z M1925.7,623.5l135-112.2v111.1l-135,112.1V623.5z"/>
</g>
<g id="haus_a_treppe_4og">
	<path id="on-115" class="st0" d="M1590.6,99.8l117.1-97.3l451.9,72l-322.3,267.7l61.2,9.7l-90.4,75.1l-61.2-9.8l-179.6,149.2
		l-93.7-14.9L1836.5,250l112.2-93.2L1590.6,99.8z M1473.8,662.7V551.6l93.7,14.9v111.1L1473.8,662.7z"/>
</g>
</svg>
